<svg xmlns="http://www.w3.org/2000/svg" xmlns:xlink="http://www.w3.org/1999/xlink" width="26" height="26" viewBox="0 0 26 26">
    <defs>
        <path id="a" d="M0 0h40v40H0z"/>
    </defs>
    <g fill="none" fill-rule="evenodd" transform="translate(-7 -7)">
        <mask id="b" fill="#fff">
            <use xlink:href="#a"/>
        </mask>
        <g mask="url(#b)">
            <path stroke="#F8F8F8" stroke-width="2" d="M19.143 11.2c6.154 0 11.143 4.656 11.143 10.4 0 5.744-4.989 10.4-11.143 10.4C12.989 32 8 27.344 8 21.6c0-5.744 4.989-10.4 11.143-10.4zM15.714 8h6.857M29.429 12l-2.4 2.24M27.714 9.6l4.286 4"/>
            <path fill="#F8F8F8" d="M19.143 20c.946 0 1.714.717 1.714 1.6 0 .883-.768 1.6-1.714 1.6s-1.714-.717-1.714-1.6c0-.883.768-1.6 1.714-1.6"/>
            <path stroke="#F8F8F8" stroke-width="2" d="M19.143 20c.946 0 1.714.717 1.714 1.6 0 .883-.768 1.6-1.714 1.6s-1.714-.717-1.714-1.6c0-.883.768-1.6 1.714-1.6zM17.943 20.48L14 16.8"/>
        </g>
    </g>
</svg>
