<svg xmlns="http://www.w3.org/2000/svg" width="30" height="24" viewBox="0 0 30 24">
    <g fill="none" fill-rule="evenodd">
        <path fill-rule="nonzero" d="M-5-8h40v40H-5z"/>
        <g stroke="#F8F8F8" stroke-width="2">
            <path d="M14.004 12.087a2 2 0 1 0 .347 3.984 2 2 0 0 0-.347-3.984z"/>
            <path d="M16.17 13.905l-.61-6.973c1.17.284 2.246.884 3.17 1.807"/>
            <path d="M28.735 19.833l-.213-2.435-.166.014c-1.964.172-3.39-.498-3.553-2.366-.164-1.868 1.124-2.775 3.088-2.947l.166-.014-.213-2.436-.166.015c-1.964.172-3.39-.498-3.553-2.366-.164-1.868 1.124-2.775 3.088-2.947l.166-.015-.213-2.435-25.9 2.266.212 2.435.166-.014c1.964-.172 3.39.498 3.553 2.366.164 1.868-1.124 2.775-3.088 2.947l-.166.014.213 2.436.166-.015c1.964-.172 3.39.498 3.553 2.366.164 1.868-1.124 2.775-3.088 2.947l-.166.015.213 2.435 25.9-2.266z"/>
        </g>
    </g>
</svg>
